<?xml version="1.0" encoding="UTF-8"?>
<!DOCTYPE svg PUBLIC "-//W3C//DTD SVG 1.1//EN" "http://www.w3.org/Graphics/SVG/1.1/DTD/svg11.dtd">
<!-- Creator: CorelDRAW 2020 (64-Bit) -->
<svg xmlns="http://www.w3.org/2000/svg" xml:space="preserve" width="215.9mm" height="279.4mm" version="1.1" style="shape-rendering:geometricPrecision; text-rendering:geometricPrecision; image-rendering:optimizeQuality; fill-rule:evenodd; clip-rule:evenodd"
viewBox="0 0 21590 27940"
 xmlns:xlink="http://www.w3.org/1999/xlink"
 xmlns:xodm="http://www.corel.com/coreldraw/odm/2003">
 <defs>
  <style type="text/css">
   <![CDATA[
    .fil2 {fill:#344A5E;fill-rule:nonzero}
    .fil3 {fill:#415A6B;fill-rule:nonzero}
    .fil0 {fill:#FFD15C;fill-rule:nonzero}
    .fil1 {fill:white;fill-rule:nonzero}
   ]]>
  </style>
 </defs>
 <g id="Capa_x0020_1">
  <metadata id="CorelCorpID_0Corel-Layer"/>
  <g id="_1385264444144">
   <path class="fil0" d="M12138.18 25595.3c17.01,-56.7 51.03,-107.73 96.39,-147.42 85.05,-70.88 138.92,-178.61 138.92,-297.68 0,-221.13 -184.28,-402.58 -411.08,-391.24 -201.29,8.51 -365.72,178.61 -371.39,379.9 -2.84,124.74 51.03,235.31 138.91,309.02 48.2,39.69 82.22,90.72 99.23,147.42l309.02 0 0 0z"/>
   <path class="fil1" d="M11945.4 25600.97l25.51 0 -113.4 -422.42c2.83,0 5.67,0 8.5,0 14.18,0 28.35,-5.67 39.69,-17.01 5.67,-5.67 11.34,-8.51 19.85,-8.51 8.51,0 14.17,2.84 19.85,8.51 19.84,22.68 53.86,22.68 73.71,0 5.67,-5.67 11.34,-8.51 19.84,-8.51 5.67,0 14.18,2.84 19.85,8.51 11.34,11.34 22.68,17.01 39.69,17.01 2.83,0 5.67,0 8.5,0l-110.56 422.42 25.51 0 116.24 -442.27c0,-5.67 0,-11.34 -5.67,-14.17 -5.67,-2.84 -11.34,0 -14.18,2.84 -5.67,5.66 -11.34,8.5 -17.01,8.5 -8.5,0 -14.17,-2.84 -22.68,-8.5 -11.34,-11.35 -22.68,-17.01 -36.85,-17.01 -14.18,0 -25.52,5.66 -36.86,17.01 -11.34,11.34 -28.35,11.34 -39.69,0 -8.5,-11.35 -22.68,-17.01 -36.86,-17.01l0 0c-14.17,0 -28.35,5.66 -36.85,17.01 -5.67,5.66 -14.18,8.5 -22.68,8.5 -5.67,0 -14.18,-2.84 -17.01,-8.5 -2.84,-2.84 -8.51,-5.67 -14.18,-2.84 -5.67,2.84 -8.5,8.5 -5.67,14.17l113.41 442.27z"/>
   <g>
    <path class="fil2" d="M11894.36 25856.12c14.18,34.02 48.2,59.54 87.89,59.54 39.69,0 73.71,-25.52 87.89,-59.54l-175.78 0z"/>
    <path class="fil2" d="M12087.15 25858.96l-206.96 0c-28.35,0 -51.03,-22.68 -51.03,-51.03l0 -215.47 309.02 0 0 215.47c0,28.35 -22.68,51.03 -51.03,51.03z"/>
   </g>
   <g>
    <path class="fil3" d="M12135.34 25700.19l-306.18 0c-17.01,0 -31.18,-14.17 -31.18,-31.18l0 0c0,-17.01 14.17,-31.18 31.18,-31.18l306.18 -0.01c17.01,0 31.19,14.18 31.19,31.19l0 0c0,17.01 -14.18,31.18 -31.19,31.18z"/>
    <path class="fil3" d="M12135.34 25799.42l-306.18 0c-17.01,0 -31.18,-14.17 -31.18,-31.18l0 0c0,-17.01 14.17,-31.19 31.18,-31.19l306.18 0c17.01,0 31.19,14.18 31.19,31.19l0 0c0,17 -14.18,31.18 -31.19,31.18z"/>
   </g>
   <g>
    <path class="fil0" d="M11982.25 24554.84c-14.17,0 -28.35,11.34 -28.35,28.35l0 96.39c0,14.18 11.34,28.36 28.35,28.36 17.01,0 28.35,-11.35 28.35,-28.36l0 -96.39c0,-17.01 -14.17,-28.35 -28.35,-28.35z"/>
    <path class="fil0" d="M11602.36 24727.78c-11.34,-11.34 -28.35,-11.34 -39.69,0 -11.34,11.34 -11.34,28.35 0,39.69l68.04 68.04c11.34,11.34 28.35,11.34 39.69,0 11.34,-11.34 11.34,-28.35 0,-39.69l-68.04 -68.04z"/>
    <path class="fil0" d="M11514.47 25119.01l-96.39 0c-14.18,0 -28.35,11.34 -28.35,28.36l0 0c0,14.17 11.34,28.35 28.35,28.35l96.39 0c14.17,0 28.35,-11.34 28.35,-28.35l0 0c0,-14.18 -14.17,-28.36 -28.35,-28.36z"/>
    <path class="fil0" d="M11630.71 25459.22l-68.04 68.04c-11.35,11.34 -11.35,28.35 0,39.69 11.34,11.34 28.35,11.34 39.69,0l68.04 -68.04c11.34,-11.34 11.34,-28.35 0,-39.69 -11.34,-11.34 -28.35,-11.34 -39.69,0z"/>
    <path class="fil0" d="M12333.8 25459.22c-11.34,-11.34 -28.35,-11.34 -39.7,0 -11.34,11.34 -11.34,28.35 0,39.69l68.05 68.04c11.34,11.34 28.35,11.34 39.68,0 11.34,-11.34 11.35,-28.35 0,-39.69l-68.03 -68.04z"/>
    <path class="fil0" d="M12546.42 25119.01l-96.39 0c-14.17,0 -28.35,11.34 -28.35,28.36l0 0c0,14.17 11.34,28.35 28.35,28.35l96.39 0c14.18,0 28.36,-11.34 28.36,-28.35l0 0c-0.01,-14.18 -11.35,-28.36 -28.36,-28.36z"/>
    <path class="fil0" d="M12362.15 24727.78l-68.05 68.04c-11.34,11.34 -11.34,28.35 0,39.69 11.35,11.34 28.36,11.34 39.69,0l68.04 -68.04c11.35,-11.34 11.35,-28.35 0,-39.69 -11.34,-11.34 -28.34,-11.34 -39.68,0z"/>
   </g>
   <g>
   </g>
   <g>
   </g>
   <g>
   </g>
   <g>
   </g>
   <g>
   </g>
   <g>
   </g>
   <g>
   </g>
   <g>
   </g>
   <g>
   </g>
   <g>
   </g>
   <g>
   </g>
   <g>
   </g>
   <g>
   </g>
   <g>
   </g>
   <g>
   </g>
  </g>
 </g>
</svg>
