<?xml version="1.0" encoding="utf-8"?>
<!-- Generator: Adobe Illustrator 22.0.0, SVG Export Plug-In . SVG Version: 6.00 Build 0)  -->
<svg version="1.1" id="Capa_1" xmlns:xodm="http://www.corel.com/coreldraw/odm/2003"
	 xmlns="http://www.w3.org/2000/svg" xmlns:xlink="http://www.w3.org/1999/xlink" x="0px" y="0px" viewBox="0 0 597.7 686.4"
	 style="enable-background:new 0 0 597.7 686.4;" xml:space="preserve">
<style type="text/css">
	.st0{fill:#FFD15C;}
	.st1{fill:#FFFFFF;}
	.st2{fill:#344A5E;}
	.st3{fill:#415A6B;}
</style>
<g id="Capa_x0020_1">
	<g id="_1490155809232">
		<path class="st0" d="M377.5,524.8c8.6-28.6,25.7-54.3,48.6-74.4c42.9-35.8,70.1-90.1,70.1-150.1c0-111.5-92.9-203.1-207.3-197.3
			c-101.5,4.3-184.5,90.1-187.3,191.6c-1.4,62.9,25.7,118.7,70.1,155.9c24.3,20,41.5,45.8,50.1,74.4L377.5,524.8L377.5,524.8
			L377.5,524.8z"/>
		<path class="st1" d="M280.3,527.7h12.9l-57.2-213.1c1.4,0,2.9,0,4.3,0c7.2,0,14.3-2.9,20-8.6c2.9-2.9,5.7-4.3,10-4.3
			c4.3,0,7.1,1.4,10,4.3c10,11.4,27.2,11.4,37.2,0c2.9-2.9,5.7-4.3,10-4.3c2.9,0,7.2,1.4,10,4.3c5.7,5.7,11.4,8.6,20,8.6
			c1.4,0,2.9,0,4.3,0L306,527.7h12.9l58.6-223.1c0-2.9,0-5.7-2.9-7.1c-2.9-1.4-5.7,0-7.2,1.4c-2.9,2.9-5.7,4.3-8.6,4.3
			c-4.3,0-7.1-1.4-11.4-4.3c-5.7-5.7-11.4-8.6-18.6-8.6c-7.2,0-12.9,2.9-18.6,8.6c-5.7,5.7-14.3,5.7-20,0
			c-4.3-5.7-11.4-8.6-18.6-8.6l0,0c-7.1,0-14.3,2.9-18.6,8.6c-2.9,2.9-7.2,4.3-11.4,4.3c-2.9,0-7.2-1.4-8.6-4.3
			c-1.4-1.4-4.3-2.9-7.2-1.4c-2.9,1.4-4.3,4.3-2.9,7.1L280.3,527.7L280.3,527.7z"/>
		<path class="st2" d="M254.5,656.4c7.2,17.2,24.3,30,44.3,30c20,0,37.2-12.9,44.3-30H254.5z"/>
		<path class="st2" d="M351.8,657.8H247.4c-14.3,0-25.7-11.4-25.7-25.7V523.4h155.9v108.7C377.5,646.3,366.1,657.8,351.8,657.8z"/>
		<path class="st3" d="M376.1,577.7H221.6c-8.6,0-15.7-7.1-15.7-15.7l0,0c0-8.6,7.1-15.7,15.7-15.7l154.4,0
			c8.6,0,15.7,7.2,15.7,15.7l0,0C391.8,570.6,384.7,577.7,376.1,577.7L376.1,577.7z"/>
		<path class="st3" d="M376.1,627.8H221.6c-8.6,0-15.7-7.1-15.7-15.7l0,0c0-8.6,7.1-15.7,15.7-15.7h154.4c8.6,0,15.7,7.2,15.7,15.7
			l0,0C391.8,620.6,384.7,627.8,376.1,627.8L376.1,627.8z"/>
		<path class="st0" d="M298.9,0c-7.1,0-14.3,5.7-14.3,14.3v48.6c0,7.2,5.7,14.3,14.3,14.3s14.3-5.7,14.3-14.3V14.3
			C313.2,5.7,306,0,298.9,0z"/>
		<path class="st0" d="M107.2,87.2c-5.7-5.7-14.3-5.7-20,0c-5.7,5.7-5.7,14.3,0,20l34.3,34.3c5.7,5.7,14.3,5.7,20,0
			c5.7-5.7,5.7-14.3,0-20L107.2,87.2L107.2,87.2z"/>
		<path class="st0" d="M62.9,284.6H14.3c-7.2,0-14.3,5.7-14.3,14.3l0,0c0,7.1,5.7,14.3,14.3,14.3h48.6c7.1,0,14.3-5.7,14.3-14.3l0,0
			C77.2,291.7,70.1,284.6,62.9,284.6z"/>
		<path class="st0" d="M121.5,456.2l-34.3,34.3c-5.7,5.7-5.7,14.3,0,20c5.7,5.7,14.3,5.7,20,0l34.3-34.3c5.7-5.7,5.7-14.3,0-20
			C135.8,450.4,127.3,450.4,121.5,456.2L121.5,456.2z"/>
		<path class="st0" d="M476.2,456.2c-5.7-5.7-14.3-5.7-20,0c-5.7,5.7-5.7,14.3,0,20l34.3,34.3c5.7,5.7,14.3,5.7,20,0
			c5.7-5.7,5.7-14.3,0-20L476.2,456.2L476.2,456.2z"/>
		<path class="st0" d="M583.4,284.6h-48.6c-7.1,0-14.3,5.7-14.3,14.3l0,0c0,7.1,5.7,14.3,14.3,14.3h48.6c7.2,0,14.3-5.7,14.3-14.3
			l0,0C597.7,291.7,592,284.6,583.4,284.6z"/>
		<path class="st0" d="M490.5,87.2l-34.3,34.3c-5.7,5.7-5.7,14.3,0,20c5.7,5.7,14.3,5.7,20,0l34.3-34.3c5.7-5.7,5.7-14.3,0-20
			C504.8,81.5,496.2,81.5,490.5,87.2z"/>
	</g>
</g>
</svg>
