<?xml version="1.0" encoding="UTF-8"?>
<!DOCTYPE svg PUBLIC "-//W3C//DTD SVG 1.1//EN" "http://www.w3.org/Graphics/SVG/1.1/DTD/svg11.dtd">
<!-- Creator: CorelDRAW 2020 (64-Bit) -->
<svg xmlns="http://www.w3.org/2000/svg" xml:space="preserve" width="215.9mm" height="279.4mm" version="1.1" style="shape-rendering:geometricPrecision; text-rendering:geometricPrecision; image-rendering:optimizeQuality; fill-rule:evenodd; clip-rule:evenodd"
viewBox="0 0 21590 27940"
 xmlns:xlink="http://www.w3.org/1999/xlink"
 xmlns:xodm="http://www.corel.com/coreldraw/odm/2003">
 <defs>
  <style type="text/css">
   <![CDATA[
    .fil3 {fill:#FF4E19;fill-rule:nonzero}
    .fil1 {fill:#FF7D3C;fill-rule:nonzero}
    .fil2 {fill:#FF9A00;fill-rule:nonzero}
    .fil0 {fill:#FFB74F;fill-rule:nonzero}
   ]]>
  </style>
 </defs>
 <g id="Capa_x0020_1">
  <metadata id="CorelCorpID_0Corel-Layer"/>
  <g id="_1385267776128">
   <polygon class="fil0" points="11541.94,20820.94 11541.94,21224.85 11292.53,21224.85 11292.53,20980.01 11154.19,20980.01 11154.19,21224.85 10893.78,21224.85 10893.78,20820.94 11217.86,20571.67 "/>
   <polygon class="fil1" points="11555.52,20696.91 11555.52,20526.08 11419.03,20526.08 11419.03,20591.91 11217.86,20437.15 10746.76,20799.57 10845.46,20927.86 11217.86,20641.38 11590.26,20927.86 11688.96,20799.57 "/>
   <polygon class="fil2" points="11541.94,20820.94 11541.94,21224.85 11292.53,21224.85 11292.53,20980.01 11217.86,20980.01 11217.86,20571.67 "/>
   <polygon class="fil3" points="11688.96,20799.57 11590.26,20927.86 11217.86,20641.38 11217.86,20437.15 11419.03,20591.91 11419.03,20526.08 11555.52,20526.08 11555.52,20696.91 "/>
   <g>
   </g>
   <g>
   </g>
   <g>
   </g>
   <g>
   </g>
   <g>
   </g>
   <g>
   </g>
   <g>
   </g>
   <g>
   </g>
   <g>
   </g>
   <g>
   </g>
   <g>
   </g>
   <g>
   </g>
   <g>
   </g>
   <g>
   </g>
   <g>
   </g>
  </g>
 </g>
</svg>
