<?xml version="1.0" encoding="utf-8"?>
<!-- Generator: Adobe Illustrator 22.0.0, SVG Export Plug-In . SVG Version: 6.00 Build 0)  -->
<svg version="1.1" id="Capa_1" xmlns:xodm="http://www.corel.com/coreldraw/odm/2003"
	 xmlns="http://www.w3.org/2000/svg" xmlns:xlink="http://www.w3.org/1999/xlink" x="0px" y="0px" viewBox="0 0 821 686.4"
	 style="enable-background:new 0 0 821 686.4;" xml:space="preserve">
<style type="text/css">
	.st0{fill:#FFB74F;}
	.st1{fill:#FF7D3C;}
	.st2{fill:#FF9A00;}
	.st3{fill:#FF4E19;}
</style>
<g id="Capa_x0020_1">
	<g id="_1490296450656">
		<polygon class="st0" points="692.7,334.4 692.7,686.4 475.4,686.4 475.4,473 354.9,473 354.9,686.4 127.9,686.4 127.9,334.4 
			410.3,117.2 		"/>
		<polygon class="st1" points="704.6,226.4 704.6,77.5 585.6,77.5 585.6,134.9 410.3,0 -0.2,315.8 85.8,427.6 410.3,178 
			734.8,427.6 820.8,315.8 		"/>
		<polygon class="st2" points="692.7,334.4 692.7,686.4 475.4,686.4 475.4,473 410.3,473 410.3,117.2 		"/>
		<polygon class="st3" points="820.8,315.8 734.8,427.6 410.3,178 410.3,0 585.6,134.9 585.6,77.5 704.6,77.5 704.6,226.4 		"/>
	</g>
</g>
</svg>
