<?xml version="1.0" encoding="UTF-8"?>
<!DOCTYPE svg PUBLIC "-//W3C//DTD SVG 1.1//EN" "http://www.w3.org/Graphics/SVG/1.1/DTD/svg11.dtd">
<!-- Creator: CorelDRAW 2020 (64-Bit) -->
<svg xmlns="http://www.w3.org/2000/svg" xml:space="preserve" width="215.9mm" height="279.4mm" version="1.1" style="shape-rendering:geometricPrecision; text-rendering:geometricPrecision; image-rendering:optimizeQuality; fill-rule:evenodd; clip-rule:evenodd"
viewBox="0 0 21590 27940"
 xmlns:xlink="http://www.w3.org/1999/xlink"
 xmlns:xodm="http://www.corel.com/coreldraw/odm/2003">
 <defs>
  <style type="text/css">
   <![CDATA[
    .fil0 {fill:black}
   ]]>
  </style>
 </defs>
 <g id="Capa_x0020_1">
  <metadata id="CorelCorpID_0Corel-Layer"/>
  <g id="_1385137471344">
   <path class="fil0" d="M4656.64 10389.85c-49.85,-27.98 -132.2,-39.16 -176.86,-34.3 -66.48,7.23 -89.43,71.57 -71.24,132.24 36.48,121.64 216.58,54.19 248.1,-97.94zm-127.14 238.76c-99.07,38.71 -162.59,12.06 -205.41,-95.51 -27.33,-68.68 -41.46,-176.11 59.49,-244.57 103.26,-70.04 211.73,-18.65 245,-27.18 -57.88,-85.71 -145.67,-135.28 -249.02,-119.96 -155.38,23.04 -179.05,126.08 -218.24,166.84 -43.02,-9.92 -33.89,-28.52 -13.85,-64.85 38.71,-70.17 102.68,-117.77 172.42,-140.97 74.41,-24.75 194.59,-27.27 289.57,48.17 42.22,33.54 72.48,75.56 89,118.23 15.18,39.18 20.14,28.06 62.9,54.55 105.71,65.5 149.69,185.53 138.47,305.25 -24.69,263.65 -288.29,411.46 -338.55,350.22 -53.43,-65.1 147.82,-95.79 226.59,-300.63 37,-96.21 12.92,-202.83 -74.07,-259.78 -46.23,112.26 -89.77,173.25 -184.3,210.19z"/>
   <path class="fil0" d="M4420.4 10901.91c11.63,-21.57 23.44,-41.75 36.89,-62.17 17.67,-26.79 21.54,-47.81 49.47,-33.09 8.2,40.14 -83.91,191.26 -78.23,259.39 37.35,-0.26 124.82,-18.35 172.45,-24.9 21.59,-2.97 43.73,-12.18 60.06,7.2 24.87,54.7 -69.02,66.76 -92.53,71.55 -42.38,8.62 -87.53,10.77 -135.41,16.67 -73.25,9.02 -86.66,2.83 -71.07,-78.04 10.45,-54.22 30.48,-104.87 58.37,-156.61z"/>
  </g>
 </g>
</svg>
