<?xml version="1.0" encoding="utf-8"?>
<!-- Generator: Adobe Illustrator 22.0.0, SVG Export Plug-In . SVG Version: 6.00 Build 0)  -->
<svg version="1.1" id="Capa_1" xmlns:xodm="http://www.corel.com/coreldraw/odm/2003"
	 xmlns="http://www.w3.org/2000/svg" xmlns:xlink="http://www.w3.org/1999/xlink" x="0px" y="0px" viewBox="0 0 686.4 686.4"
	 style="enable-background:new 0 0 686.4 686.4;" xml:space="preserve">
<style type="text/css">
	.st0{fill:#FFE14D;}
	.st1{fill:#FFBB33;}
	.st2{fill:#E68A2E;}
</style>
<g id="Capa_x0020_1">
	<g id="_1387197648560">
		<g>
			<circle class="st0" cx="343.2" cy="343.2" r="343.2"/>
			<path class="st1" d="M686.4,343.2C686.4,154,532.4,0,343.2,0v686.4C532.4,686.4,686.4,532.4,686.4,343.2L686.4,343.2L686.4,343.2
				z"/>
			<g>
				<g>
					<path class="st1" d="M343.2,604.6c-144.1,0-261.4-117.3-261.4-261.4c0-144.1,117.3-261.4,261.4-261.4
						c144.1,0,261.4,117.3,261.4,261.4C604.6,487.3,487.3,604.6,343.2,604.6L343.2,604.6z"/>
				</g>
			</g>
			<path class="st2" d="M604.6,343.2c0-144.1-117.3-261.4-261.4-261.4v522.8C487.3,604.6,604.6,487.3,604.6,343.2L604.6,343.2
				L604.6,343.2z"/>
			<g id="Cent_2_">
				<path class="st0" d="M363.3,324.5V245c23.1,5.7,40.2,20.6,40.2,37.7c0,11.1,9,20.1,20.1,20.1c11.1,0,20.1-9,20.1-20.1
					c0-38.9-34.6-71.3-80.4-78.8v-21.7c0-11.1-9-20.1-20.1-20.1c-11.1,0-20.1,9-20.1,20.1v21.7c-45.8,7.5-80.4,40-80.4,78.8
					c0,38.9,34.6,71.3,80.4,78.8V441c-23.1-5.7-40.2-20.6-40.2-37.7c0-11.1-9-20.1-20.1-20.1c-11.1,0-20.1,9-20.1,20.1
					c0,38.9,34.6,71.3,80.4,78.8v21.9c0,11.1,9,20.1,20.1,20.1c11.1,0,20.1-9,20.1-20.1v-21.9c45.8-7.5,80.4-40,80.4-78.8
					C443.7,364.5,409.2,332,363.3,324.5L363.3,324.5z M282.9,282.7c0-17.1,17.1-32,40.2-37.7v75.3
					C300,314.7,282.9,299.8,282.9,282.7z M363.3,441v-75.3c23.1,5.7,40.2,20.6,40.2,37.7C403.5,420.4,386.4,435.3,363.3,441
					L363.3,441z"/>
			</g>
			<path class="st1" d="M363.3,504.1v-21.9c45.8-7.5,80.4-40,80.4-78.8c0-38.9-34.6-71.3-80.4-78.8V245
				c23.1,5.7,40.2,20.6,40.2,37.7c0,11.1,9,20.1,20.1,20.1c11.1,0,20.1-9,20.1-20.1c0-38.9-34.6-71.3-80.4-78.8v-21.7
				c0-11.1-9-20.1-20.1-20.1v362.2C354.3,524.2,363.3,515.2,363.3,504.1L363.3,504.1z M363.3,365.7c23.1,5.7,40.2,20.6,40.2,37.7
				c0,17.1-17.1,32-40.2,37.7V365.7z"/>
		</g>
	</g>
</g>
</svg>
