<?xml version="1.0" encoding="UTF-8"?>
<!DOCTYPE svg PUBLIC "-//W3C//DTD SVG 1.1//EN" "http://www.w3.org/Graphics/SVG/1.1/DTD/svg11.dtd">
<!-- Creator: CorelDRAW 2020 (64-Bit) -->
<svg xmlns="http://www.w3.org/2000/svg" xml:space="preserve" width="215.9mm" height="279.4mm" version="1.1" style="shape-rendering:geometricPrecision; text-rendering:geometricPrecision; image-rendering:optimizeQuality; fill-rule:evenodd; clip-rule:evenodd"
viewBox="0 0 21590 27940"
 xmlns:xlink="http://www.w3.org/1999/xlink"
 xmlns:xodm="http://www.corel.com/coreldraw/odm/2003"
 enable-background="new 0 0 512 512">
 <defs>
  <style type="text/css">
   <![CDATA[
    .fil2 {fill:#E68A2E;fill-rule:nonzero}
    .fil1 {fill:#FFBB33;fill-rule:nonzero}
    .fil0 {fill:#FFE14D;fill-rule:nonzero}
   ]]>
  </style>
 </defs>
 <g id="Capa_x0020_1">
  <metadata id="CorelCorpID_0Corel-Layer"/>
  <g id="_1387197648560">
   <g>
    <circle class="fil0" cx="12436.9" cy="20846.95" r="635.32"/>
    <path class="fil1" d="M13072.22 20846.95c0,-350.31 -285,-635.31 -635.32,-635.31l0 1270.63c350.32,0 635.32,-285 635.32,-635.32l0 0z"/>
    <g>
     <g>
      <path class="fil1" d="M12436.9 21330.89c-266.83,0 -483.93,-217.1 -483.93,-483.94 0,-266.83 217.1,-483.93 483.93,-483.93 266.84,0 483.94,217.1 483.94,483.93 0,266.84 -217.1,483.94 -483.94,483.94z"/>
     </g>
    </g>
    <path class="fil2" d="M12920.84 20846.95c0,-266.83 -217.1,-483.93 -483.94,-483.93l0 967.86c266.84,0 483.94,-217.1 483.94,-483.93l0 0z"/>
    <g id="Cent_2_">
     <path class="fil0" d="M12474.13 20812.38l0 -147.18c42.81,10.5 74.45,38.05 74.45,69.71 0,20.58 16.65,37.23 37.23,37.23 20.57,0 37.22,-16.65 37.22,-37.23 0,-71.92 -64.03,-132.06 -148.9,-145.89l0 -40.24c0,-20.57 -16.65,-37.22 -37.23,-37.22 -20.57,0 -37.22,16.65 -37.22,37.22l0 40.24c-84.87,13.83 -148.91,73.97 -148.91,145.89 0,71.93 64.04,132.06 148.91,145.89l0 147.18c-42.82,-10.5 -74.45,-38.05 -74.45,-69.71 0,-20.58 -16.65,-37.23 -37.23,-37.23 -20.58,0 -37.23,16.65 -37.23,37.23 0,71.92 64.03,132.06 148.91,145.89l0 40.6c0,20.57 16.65,37.22 37.22,37.22 20.58,0 37.23,-16.65 37.23,-37.22l0 -40.6c84.87,-13.83 148.9,-73.97 148.9,-145.89 0,-71.93 -64.03,-132.07 -148.9,-145.89zm-148.91 -77.47c0,-31.66 31.64,-59.21 74.46,-69.71l0 139.43c-42.82,-10.51 -74.46,-38.06 -74.46,-69.72zm148.91 293.07l0 -139.43c42.81,10.51 74.45,38.05 74.45,69.72 0,31.66 -31.64,59.2 -74.45,69.71z"/>
    </g>
    <path class="fil1" d="M12474.13 21144.76l0 -40.6c84.87,-13.83 148.9,-73.97 148.9,-145.89 0,-71.93 -64.03,-132.06 -148.9,-145.89l0 -147.18c42.81,10.5 74.45,38.05 74.45,69.71 0,20.58 16.65,37.23 37.23,37.23 20.57,0 37.22,-16.65 37.22,-37.23 0,-71.92 -64.03,-132.06 -148.9,-145.89l0 -40.24c0,-20.57 -16.65,-37.22 -37.23,-37.22l0 670.42c20.58,0 37.23,-16.65 37.23,-37.22l0 0zm0 -256.21c42.81,10.5 74.45,38.05 74.45,69.71 0,31.67 -31.64,59.22 -74.45,69.72l0 -139.43z"/>
   </g>
  </g>
 </g>
</svg>
